<svg xmlns="http://www.w3.org/2000/svg" xmlns:xlink="http://www.w3.org/1999/xlink" id="icon_lessPoint" width="16" height="16" viewBox="0 0 16 16"><defs><style>.cls-1,.cls-6{fill:none}.cls-2{clip-path:url(#clip-path)}.cls-3{fill:transparent}.cls-4{clip-path:url(#clip-path-2)}.cls-5{fill:#999}.cls-6{stroke:#999}.cls-7{stroke:none}</style><clipPath id="clip-path"><path id="路径_541" d="M16,0H0V-16H16Z" class="cls-1" data-name="路径 541" transform="translate(0 16)"/></clipPath><clipPath id="clip-path-2"><path id="路径_543" d="M2.531-8.73H3.8a.253.253,0,0,1,.189.086L7.406-4.7v-8.8a.125.125,0,0,1,.125-.125h.938a.125.125,0,0,1,.125.125v8.8l3.42-3.942A.248.248,0,0,1,12.2-8.73h1.266a.125.125,0,0,1,.094.206L8.377-2.547a.5.5,0,0,1-.755,0L2.438-8.523A.124.124,0,0,1,2.531-8.73Z" class="cls-1" data-name="路径 543" transform="translate(-2.407 13.625)"/></clipPath></defs><g id="组_942" class="cls-2" data-name="组 942"><path id="路径_540" d="M21-21H-5V5H21Z" class="cls-3" data-name="路径 540" transform="translate(0 16)"/></g><g id="组_971" data-name="组 971" transform="translate(2.407 1.375)"><g id="组_943" class="cls-4" data-name="组 943"><path id="路径_542" d="M18.593-18.625H-2.593V2.625H18.593Z" class="cls-5" data-name="路径 542" transform="translate(-2.407 13.625)"/></g><g id="矩形_263" class="cls-6" data-name="矩形 263" transform="translate(0.593 11.625)"><rect width="10" height="1" class="cls-7" rx=".5"/><rect width="9" x=".5" y=".5" class="cls-1"/></g></g></svg>