<svg xmlns="http://www.w3.org/2000/svg" xmlns:xlink="http://www.w3.org/1999/xlink" id="icon_morePoint" width="16" height="16" viewBox="0 0 16 16"><defs><style>.cls-1,.cls-6{fill:none}.cls-2{clip-path:url(#clip-path)}.cls-3{fill:transparent}.cls-4{clip-path:url(#clip-path-2)}.cls-5{fill:#999}.cls-6{stroke:#999}.cls-7{stroke:none}</style><clipPath id="clip-path"><path id="路径_541" d="M0-16H16V0H0Z" class="cls-1" data-name="路径 541" transform="translate(0 16)"/></clipPath><clipPath id="clip-path-2"><path id="路径_543" d="M13.469-7.27H12.2a.253.253,0,0,1-.189-.086L8.594-11.3v8.8a.125.125,0,0,1-.125.125H7.531A.125.125,0,0,1,7.406-2.5v-8.8L3.986-7.356A.248.248,0,0,1,3.8-7.27H2.531a.125.125,0,0,1-.094-.206l5.186-5.977a.5.5,0,0,1,.755,0l5.184,5.977A.124.124,0,0,1,13.469-7.27Z" class="cls-1" data-name="路径 543" transform="translate(-2.407 13.625)"/></clipPath></defs><g id="组_942" class="cls-2" data-name="组 942"><path id="路径_540" d="M-5,5H21V-21H-5Z" class="cls-3" data-name="路径 540" transform="translate(0 16)"/></g><g id="组_971" data-name="组 971" transform="translate(0 1)"><g id="组_943" class="cls-4" data-name="组 943" transform="translate(2.407 2.375)"><path id="路径_542" d="M-2.593,2.625H18.593v-21.25H-2.593Z" class="cls-5" data-name="路径 542" transform="translate(-2.407 13.625)"/></g><g id="矩形_263" class="cls-6" data-name="矩形 263" transform="translate(3 1)"><rect width="10" height="1" class="cls-7" rx=".5"/><rect width="9" x=".5" y=".5" class="cls-1"/></g></g></svg>